<svg xmlns="http://www.w3.org/2000/svg" xmlns:xlink="http://www.w3.org/1999/xlink" width="372" zoomAndPan="magnify" viewBox="0 0 279 54.75" height="73" preserveAspectRatio="xMidYMid meet" version="1.0"><defs><g/><clipPath id="1a80acb1cc"><path d="M 12.78125 7.816406 L 27.359375 7.816406 L 27.359375 19.960938 L 12.78125 19.960938 Z M 0.632812 19.960938 L 39.503906 19.960938 L 39.503906 34.539062 L 0.632812 34.539062 Z M 12.78125 34.539062 L 27.359375 34.539062 L 27.359375 46.6875 L 12.78125 46.6875 Z M 12.78125 34.539062 " clip-rule="nonzero"/></clipPath></defs><g clip-path="url(#1a80acb1cc)"><path fill="#fa874c" d="M 0.632812 7.816406 L 39.503906 7.816406 L 39.503906 46.6875 L 0.632812 46.6875 Z M 0.632812 7.816406 " fill-opacity="1" fill-rule="nonzero"/></g><g fill="#3750f0" fill-opacity="1"><g transform="translate(47.25934, 45.520444)"><g><path d="M 29.515625 -16.078125 C 29.515625 -12.492188 28.847656 -9.507812 27.515625 -7.125 C 26.179688 -4.75 24.300781 -2.96875 21.875 -1.78125 C 19.445312 -0.59375 16.59375 0 13.3125 0 L 3.328125 0 L 3.328125 -30.859375 L 14.015625 -30.859375 C 17.335938 -30.859375 20.148438 -30.285156 22.453125 -29.140625 C 24.765625 -28.003906 26.519531 -26.335938 27.71875 -24.140625 C 28.914062 -21.941406 29.515625 -19.253906 29.515625 -16.078125 Z M 20.875 -15.78125 C 20.875 -17.65625 20.625 -19.207031 20.125 -20.4375 C 19.625 -21.664062 18.875 -22.585938 17.875 -23.203125 C 16.875 -23.816406 15.613281 -24.125 14.09375 -24.125 L 11.671875 -24.125 L 11.671875 -6.84375 L 13.53125 -6.84375 C 16.0625 -6.84375 17.914062 -7.578125 19.09375 -9.046875 C 20.28125 -10.515625 20.875 -12.757812 20.875 -15.78125 Z M 20.875 -15.78125 "/></g></g></g><g fill="#3750f0" fill-opacity="1"><g transform="translate(74.6434, 45.520444)"><g><path d="M 21.65625 0 L 3.328125 0 L 3.328125 -30.859375 L 21.65625 -30.859375 L 21.65625 -24.15625 L 11.671875 -24.15625 L 11.671875 -19.3125 L 20.90625 -19.3125 L 20.90625 -12.625 L 11.671875 -12.625 L 11.671875 -6.796875 L 21.65625 -6.796875 Z M 21.65625 0 "/></g></g></g><g fill="#3750f0" fill-opacity="1"><g transform="translate(94.032352, 45.520444)"><g><path d="M 29.984375 -30.859375 L 19.875 0 L 10.0625 0 L 0 -30.859375 L 9.375 -30.859375 L 13.5625 -15.21875 C 13.71875 -14.625 13.894531 -13.863281 14.09375 -12.9375 C 14.300781 -12.019531 14.492188 -11.101562 14.671875 -10.1875 C 14.847656 -9.28125 14.957031 -8.535156 15 -7.953125 C 15.0625 -8.535156 15.164062 -9.273438 15.3125 -10.171875 C 15.46875 -11.066406 15.640625 -11.96875 15.828125 -12.875 C 16.023438 -13.789062 16.207031 -14.539062 16.375 -15.125 L 20.65625 -30.859375 Z M 29.984375 -30.859375 "/></g></g></g><g fill="#3750f0" fill-opacity="1"><g transform="translate(119.686598, 45.520444)"><g><path d="M 11.140625 -23.90625 L 11.140625 0 L 2.890625 0 L 2.890625 -23.90625 Z M 7.046875 -33.53125 C 8.234375 -33.53125 9.265625 -33.285156 10.140625 -32.796875 C 11.015625 -32.304688 11.453125 -31.328125 11.453125 -29.859375 C 11.453125 -28.441406 11.015625 -27.484375 10.140625 -26.984375 C 9.265625 -26.484375 8.234375 -26.234375 7.046875 -26.234375 C 5.835938 -26.234375 4.804688 -26.484375 3.953125 -26.984375 C 3.109375 -27.484375 2.6875 -28.441406 2.6875 -29.859375 C 2.6875 -31.328125 3.109375 -32.304688 3.953125 -32.796875 C 4.804688 -33.285156 5.835938 -33.53125 7.046875 -33.53125 Z M 7.046875 -33.53125 "/></g></g></g><g fill="#3750f0" fill-opacity="1"><g transform="translate(129.413925, 45.520444)"><g><path d="M 17.8125 -24.328125 C 20.269531 -24.328125 22.28125 -23.628906 23.84375 -22.234375 C 25.40625 -20.847656 26.1875 -18.617188 26.1875 -15.546875 L 26.1875 0 L 17.9375 0 L 17.9375 -13.046875 C 17.9375 -14.628906 17.707031 -15.828125 17.25 -16.640625 C 16.789062 -17.453125 16.054688 -17.859375 15.046875 -17.859375 C 13.484375 -17.859375 12.429688 -17.21875 11.890625 -15.9375 C 11.359375 -14.664062 11.09375 -12.84375 11.09375 -10.46875 L 11.09375 0 L 2.84375 0 L 2.84375 -23.90625 L 9.078125 -23.90625 L 10.1875 -20.75 L 10.515625 -20.75 C 11.015625 -21.507812 11.613281 -22.15625 12.3125 -22.6875 C 13.019531 -23.21875 13.832031 -23.625 14.75 -23.90625 C 15.664062 -24.1875 16.6875 -24.328125 17.8125 -24.328125 Z M 17.8125 -24.328125 "/></g></g></g><g fill="#3750f0" fill-opacity="1"><g transform="translate(154.034503, 45.520444)"><g><path d="M 29.78125 0 L 21.390625 0 L 21.390625 -12.578125 L 11.71875 -12.578125 L 11.71875 0 L 3.328125 0 L 3.328125 -30.859375 L 11.71875 -30.859375 L 11.71875 -19.421875 L 21.390625 -19.421875 L 21.390625 -30.859375 L 29.78125 -30.859375 Z M 29.78125 0 "/></g></g></g><g fill="#3750f0" fill-opacity="1"><g transform="translate(182.810853, 45.520444)"><g><path d="M 25.6875 -12 C 25.6875 -10.007812 25.410156 -8.238281 24.859375 -6.6875 C 24.304688 -5.144531 23.507812 -3.84375 22.46875 -2.78125 C 21.425781 -1.726562 20.164062 -0.929688 18.6875 -0.390625 C 17.21875 0.148438 15.554688 0.421875 13.703125 0.421875 C 11.960938 0.421875 10.375 0.148438 8.9375 -0.390625 C 7.5 -0.929688 6.242188 -1.726562 5.171875 -2.78125 C 4.097656 -3.84375 3.269531 -5.144531 2.6875 -6.6875 C 2.101562 -8.238281 1.8125 -10.007812 1.8125 -12 C 1.8125 -14.644531 2.289062 -16.882812 3.25 -18.71875 C 4.21875 -20.550781 5.597656 -21.941406 7.390625 -22.890625 C 9.191406 -23.847656 11.335938 -24.328125 13.828125 -24.328125 C 16.117188 -24.328125 18.15625 -23.847656 19.9375 -22.890625 C 21.726562 -21.941406 23.132812 -20.550781 24.15625 -18.71875 C 25.175781 -16.882812 25.6875 -14.644531 25.6875 -12 Z M 10.1875 -12 C 10.1875 -10.632812 10.304688 -9.484375 10.546875 -8.546875 C 10.785156 -7.617188 11.171875 -6.910156 11.703125 -6.421875 C 12.234375 -5.941406 12.925781 -5.703125 13.78125 -5.703125 C 14.632812 -5.703125 15.316406 -5.941406 15.828125 -6.421875 C 16.335938 -6.910156 16.707031 -7.617188 16.9375 -8.546875 C 17.164062 -9.484375 17.28125 -10.632812 17.28125 -12 C 17.28125 -13.363281 17.164062 -14.503906 16.9375 -15.421875 C 16.707031 -16.335938 16.332031 -17.023438 15.8125 -17.484375 C 15.300781 -17.953125 14.609375 -18.1875 13.734375 -18.1875 C 12.484375 -18.1875 11.578125 -17.664062 11.015625 -16.625 C 10.460938 -15.582031 10.1875 -14.039062 10.1875 -12 Z M 10.1875 -12 "/></g></g></g><g fill="#3750f0" fill-opacity="1"><g transform="translate(206.018055, 45.520444)"><g><path d="M 26.109375 -23.90625 L 26.109375 0 L 19.875 0 L 18.84375 -2.96875 L 18.359375 -2.96875 C 17.867188 -2.164062 17.242188 -1.515625 16.484375 -1.015625 C 15.734375 -0.523438 14.898438 -0.164062 13.984375 0.0625 C 13.078125 0.300781 12.128906 0.421875 11.140625 0.421875 C 9.578125 0.421875 8.164062 0.117188 6.90625 -0.484375 C 5.644531 -1.085938 4.644531 -2.035156 3.90625 -3.328125 C 3.175781 -4.628906 2.8125 -6.296875 2.8125 -8.328125 L 2.8125 -23.90625 L 11.0625 -23.90625 L 11.0625 -10.84375 C 11.0625 -9.300781 11.28125 -8.125 11.71875 -7.3125 C 12.164062 -6.5 12.894531 -6.09375 13.90625 -6.09375 C 14.945312 -6.09375 15.75 -6.375 16.3125 -6.9375 C 16.882812 -7.5 17.285156 -8.328125 17.515625 -9.421875 C 17.742188 -10.523438 17.859375 -11.863281 17.859375 -13.4375 L 17.859375 -23.90625 Z M 26.109375 -23.90625 "/></g></g></g><g fill="#3750f0" fill-opacity="1"><g transform="translate(230.638633, 45.520444)"><g><path d="M 20.625 -7.34375 C 20.625 -5.820312 20.285156 -4.476562 19.609375 -3.3125 C 18.929688 -2.144531 17.847656 -1.226562 16.359375 -0.5625 C 14.878906 0.09375 12.929688 0.421875 10.515625 0.421875 C 8.804688 0.421875 7.28125 0.328125 5.9375 0.140625 C 4.59375 -0.0351562 3.234375 -0.382812 1.859375 -0.90625 L 1.859375 -7.515625 C 3.359375 -6.828125 4.890625 -6.332031 6.453125 -6.03125 C 8.015625 -5.726562 9.25 -5.578125 10.15625 -5.578125 C 11.082031 -5.578125 11.757812 -5.675781 12.1875 -5.875 C 12.613281 -6.082031 12.828125 -6.390625 12.828125 -6.796875 C 12.828125 -7.148438 12.679688 -7.445312 12.390625 -7.6875 C 12.109375 -7.9375 11.597656 -8.222656 10.859375 -8.546875 C 10.117188 -8.867188 9.082031 -9.304688 7.75 -9.859375 C 6.425781 -10.398438 5.320312 -10.992188 4.4375 -11.640625 C 3.5625 -12.296875 2.90625 -13.070312 2.46875 -13.96875 C 2.03125 -14.875 1.8125 -15.976562 1.8125 -17.28125 C 1.8125 -19.613281 2.710938 -21.367188 4.515625 -22.546875 C 6.316406 -23.734375 8.703125 -24.328125 11.671875 -24.328125 C 13.242188 -24.328125 14.726562 -24.15625 16.125 -23.8125 C 17.519531 -23.46875 18.960938 -22.96875 20.453125 -22.3125 L 18.1875 -16.984375 C 17.007812 -17.523438 15.8125 -17.957031 14.59375 -18.28125 C 13.382812 -18.601562 12.425781 -18.765625 11.71875 -18.765625 C 11.0625 -18.765625 10.554688 -18.675781 10.203125 -18.5 C 9.859375 -18.332031 9.6875 -18.085938 9.6875 -17.765625 C 9.6875 -17.472656 9.804688 -17.210938 10.046875 -16.984375 C 10.296875 -16.765625 10.765625 -16.503906 11.453125 -16.203125 C 12.148438 -15.910156 13.160156 -15.5 14.484375 -14.96875 C 15.867188 -14.40625 17.015625 -13.800781 17.921875 -13.15625 C 18.828125 -12.519531 19.503906 -11.742188 19.953125 -10.828125 C 20.398438 -9.910156 20.625 -8.75 20.625 -7.34375 Z M 20.625 -7.34375 "/></g></g></g><g fill="#3750f0" fill-opacity="1"><g transform="translate(248.65639, 45.520444)"><g><path d="M 13.609375 -24.328125 C 15.929688 -24.328125 17.9375 -23.921875 19.625 -23.109375 C 21.3125 -22.304688 22.613281 -21.09375 23.53125 -19.46875 C 24.445312 -17.851562 24.90625 -15.832031 24.90625 -13.40625 L 24.90625 -9.734375 L 10.15625 -9.734375 C 10.21875 -8.472656 10.679688 -7.441406 11.546875 -6.640625 C 12.421875 -5.835938 13.703125 -5.4375 15.390625 -5.4375 C 16.878906 -5.4375 18.242188 -5.582031 19.484375 -5.875 C 20.734375 -6.175781 22.019531 -6.640625 23.34375 -7.265625 L 23.34375 -1.328125 C 22.1875 -0.722656 20.925781 -0.28125 19.5625 0 C 18.195312 0.28125 16.472656 0.421875 14.390625 0.421875 C 11.984375 0.421875 9.828125 -0.00390625 7.921875 -0.859375 C 6.023438 -1.722656 4.53125 -3.054688 3.4375 -4.859375 C 2.351562 -6.660156 1.8125 -8.972656 1.8125 -11.796875 C 1.8125 -14.660156 2.300781 -17.019531 3.28125 -18.875 C 4.269531 -20.726562 5.648438 -22.097656 7.421875 -22.984375 C 9.203125 -23.878906 11.265625 -24.328125 13.609375 -24.328125 Z M 13.90625 -18.71875 C 12.9375 -18.71875 12.125 -18.410156 11.46875 -17.796875 C 10.8125 -17.179688 10.425781 -16.222656 10.3125 -14.921875 L 17.40625 -14.921875 C 17.394531 -15.617188 17.253906 -16.253906 16.984375 -16.828125 C 16.722656 -17.410156 16.332031 -17.867188 15.8125 -18.203125 C 15.300781 -18.546875 14.664062 -18.71875 13.90625 -18.71875 Z M 13.90625 -18.71875 "/></g></g></g><g fill="#fc8742" fill-opacity="1"><g transform="translate(96.524233, 9.926051)"><g><path d="M 7.671875 -4.1875 C 7.671875 -3.25 7.492188 -2.46875 7.140625 -1.84375 C 6.796875 -1.226562 6.304688 -0.765625 5.671875 -0.453125 C 5.046875 -0.148438 4.3125 0 3.46875 0 L 0.859375 0 L 0.859375 -8.015625 L 3.640625 -8.015625 C 4.503906 -8.015625 5.234375 -7.863281 5.828125 -7.5625 C 6.429688 -7.269531 6.890625 -6.835938 7.203125 -6.265625 C 7.515625 -5.703125 7.671875 -5.007812 7.671875 -4.1875 Z M 5.421875 -4.109375 C 5.421875 -4.585938 5.351562 -4.988281 5.21875 -5.3125 C 5.09375 -5.632812 4.898438 -5.875 4.640625 -6.03125 C 4.378906 -6.1875 4.054688 -6.265625 3.671875 -6.265625 L 3.03125 -6.265625 L 3.03125 -1.78125 L 3.515625 -1.78125 C 4.171875 -1.78125 4.648438 -1.96875 4.953125 -2.34375 C 5.265625 -2.726562 5.421875 -3.316406 5.421875 -4.109375 Z M 5.421875 -4.109375 "/></g></g></g><g fill="#fc8742" fill-opacity="1"><g transform="translate(113.745092, 9.926051)"><g><path d="M 3.5 -8.015625 C 4.21875 -8.015625 4.816406 -7.925781 5.296875 -7.75 C 5.785156 -7.570312 6.148438 -7.304688 6.390625 -6.953125 C 6.640625 -6.609375 6.765625 -6.175781 6.765625 -5.65625 C 6.765625 -5.320312 6.707031 -5.019531 6.59375 -4.75 C 6.488281 -4.488281 6.332031 -4.253906 6.125 -4.046875 C 5.925781 -3.835938 5.6875 -3.65625 5.40625 -3.5 L 7.734375 0 L 5.28125 0 L 3.578125 -2.921875 L 3.03125 -2.921875 L 3.03125 0 L 0.859375 0 L 0.859375 -8.015625 Z M 3.46875 -6.375 L 3.03125 -6.375 L 3.03125 -4.546875 L 3.4375 -4.546875 C 3.769531 -4.546875 4.039062 -4.617188 4.25 -4.765625 C 4.46875 -4.910156 4.578125 -5.171875 4.578125 -5.546875 C 4.578125 -5.804688 4.488281 -6.007812 4.3125 -6.15625 C 4.132812 -6.300781 3.851562 -6.375 3.46875 -6.375 Z M 3.46875 -6.375 "/></g></g></g><g fill="#fc8742" fill-opacity="1"><g transform="translate(130.324945, 9.926051)"><g><path d="M 8.375 -4.015625 C 8.375 -3.398438 8.296875 -2.835938 8.140625 -2.328125 C 7.992188 -1.828125 7.765625 -1.394531 7.453125 -1.03125 C 7.140625 -0.664062 6.734375 -0.382812 6.234375 -0.1875 C 5.742188 0.0078125 5.15625 0.109375 4.46875 0.109375 C 3.800781 0.109375 3.21875 0.0078125 2.71875 -0.1875 C 2.226562 -0.382812 1.820312 -0.660156 1.5 -1.015625 C 1.1875 -1.378906 0.953125 -1.816406 0.796875 -2.328125 C 0.648438 -2.835938 0.578125 -3.40625 0.578125 -4.03125 C 0.578125 -4.863281 0.710938 -5.585938 0.984375 -6.203125 C 1.265625 -6.816406 1.691406 -7.289062 2.265625 -7.625 C 2.835938 -7.96875 3.578125 -8.140625 4.484375 -8.140625 C 5.398438 -8.140625 6.140625 -7.96875 6.703125 -7.625 C 7.273438 -7.289062 7.695312 -6.8125 7.96875 -6.1875 C 8.238281 -5.570312 8.375 -4.847656 8.375 -4.015625 Z M 2.859375 -4.015625 C 2.859375 -3.535156 2.910156 -3.117188 3.015625 -2.765625 C 3.128906 -2.421875 3.300781 -2.15625 3.53125 -1.96875 C 3.769531 -1.78125 4.082031 -1.6875 4.46875 -1.6875 C 4.863281 -1.6875 5.179688 -1.78125 5.421875 -1.96875 C 5.660156 -2.15625 5.832031 -2.421875 5.9375 -2.765625 C 6.039062 -3.117188 6.09375 -3.535156 6.09375 -4.015625 C 6.09375 -4.742188 5.96875 -5.316406 5.71875 -5.734375 C 5.476562 -6.160156 5.066406 -6.375 4.484375 -6.375 C 4.085938 -6.375 3.769531 -6.273438 3.53125 -6.078125 C 3.289062 -5.890625 3.117188 -5.617188 3.015625 -5.265625 C 2.910156 -4.921875 2.859375 -4.503906 2.859375 -4.015625 Z M 2.859375 -4.015625 "/></g></g></g><g fill="#fc8742" fill-opacity="1"><g transform="translate(148.252555, 9.926051)"><g><path d="M 4.09375 -4.703125 L 7.546875 -4.703125 L 7.546875 -0.375 C 7.128906 -0.226562 6.65625 -0.109375 6.125 -0.015625 C 5.59375 0.0664062 5.035156 0.109375 4.453125 0.109375 C 3.679688 0.109375 3.003906 -0.0390625 2.421875 -0.34375 C 1.835938 -0.644531 1.382812 -1.097656 1.0625 -1.703125 C 0.738281 -2.316406 0.578125 -3.09375 0.578125 -4.03125 C 0.578125 -4.875 0.734375 -5.597656 1.046875 -6.203125 C 1.367188 -6.816406 1.84375 -7.289062 2.46875 -7.625 C 3.101562 -7.96875 3.875 -8.140625 4.78125 -8.140625 C 5.28125 -8.140625 5.753906 -8.085938 6.203125 -7.984375 C 6.660156 -7.890625 7.054688 -7.769531 7.390625 -7.625 L 6.703125 -5.9375 C 6.410156 -6.070312 6.109375 -6.175781 5.796875 -6.25 C 5.484375 -6.320312 5.148438 -6.359375 4.796875 -6.359375 C 4.316406 -6.359375 3.929688 -6.25 3.640625 -6.03125 C 3.347656 -5.8125 3.132812 -5.519531 3 -5.15625 C 2.875 -4.800781 2.8125 -4.410156 2.8125 -3.984375 C 2.8125 -3.484375 2.878906 -3.0625 3.015625 -2.71875 C 3.160156 -2.375 3.367188 -2.113281 3.640625 -1.9375 C 3.910156 -1.757812 4.238281 -1.671875 4.625 -1.671875 C 4.757812 -1.671875 4.914062 -1.679688 5.09375 -1.703125 C 5.28125 -1.722656 5.421875 -1.742188 5.515625 -1.765625 L 5.515625 -3.015625 L 4.09375 -3.015625 Z M 4.09375 -4.703125 "/></g></g></g><g fill="#fc8742" fill-opacity="1"><g transform="translate(165.544638, 9.926051)"><g><path d="M 5.78125 0 L 5.390625 -1.5 L 2.78125 -1.5 L 2.375 0 L 0 0 L 2.609375 -8.046875 L 5.5 -8.046875 L 8.15625 0 Z M 4.9375 -3.28125 L 4.59375 -4.59375 C 4.5625 -4.738281 4.507812 -4.941406 4.4375 -5.203125 C 4.363281 -5.472656 4.289062 -5.75 4.21875 -6.03125 C 4.15625 -6.3125 4.109375 -6.546875 4.078125 -6.734375 C 4.046875 -6.546875 4 -6.316406 3.9375 -6.046875 C 3.875 -5.785156 3.8125 -5.519531 3.75 -5.25 C 3.6875 -4.988281 3.628906 -4.769531 3.578125 -4.59375 L 3.234375 -3.28125 Z M 4.9375 -3.28125 "/></g></g></g><g fill="#fc8742" fill-opacity="1"><g transform="translate(182.677839, 9.926051)"><g><path d="M 3.5 -8.015625 C 4.21875 -8.015625 4.816406 -7.925781 5.296875 -7.75 C 5.785156 -7.570312 6.148438 -7.304688 6.390625 -6.953125 C 6.640625 -6.609375 6.765625 -6.175781 6.765625 -5.65625 C 6.765625 -5.320312 6.707031 -5.019531 6.59375 -4.75 C 6.488281 -4.488281 6.332031 -4.253906 6.125 -4.046875 C 5.925781 -3.835938 5.6875 -3.65625 5.40625 -3.5 L 7.734375 0 L 5.28125 0 L 3.578125 -2.921875 L 3.03125 -2.921875 L 3.03125 0 L 0.859375 0 L 0.859375 -8.015625 Z M 3.46875 -6.375 L 3.03125 -6.375 L 3.03125 -4.546875 L 3.4375 -4.546875 C 3.769531 -4.546875 4.039062 -4.617188 4.25 -4.765625 C 4.46875 -4.910156 4.578125 -5.171875 4.578125 -5.546875 C 4.578125 -5.804688 4.488281 -6.007812 4.3125 -6.15625 C 4.132812 -6.300781 3.851562 -6.375 3.46875 -6.375 Z M 3.46875 -6.375 "/></g></g></g><g fill="#fc8742" fill-opacity="1"><g transform="translate(199.257691, 9.926051)"><g><path d="M 0.859375 0 L 0.859375 -8.015625 L 3.046875 -8.015625 L 3.046875 0 Z M 0.859375 0 "/></g></g></g><g fill="#fc8742" fill-opacity="1"><g transform="translate(212.150384, 9.926051)"><g><path d="M 5.78125 0 L 5.390625 -1.5 L 2.78125 -1.5 L 2.375 0 L 0 0 L 2.609375 -8.046875 L 5.5 -8.046875 L 8.15625 0 Z M 4.9375 -3.28125 L 4.59375 -4.59375 C 4.5625 -4.738281 4.507812 -4.941406 4.4375 -5.203125 C 4.363281 -5.472656 4.289062 -5.75 4.21875 -6.03125 C 4.15625 -6.3125 4.109375 -6.546875 4.078125 -6.734375 C 4.046875 -6.546875 4 -6.316406 3.9375 -6.046875 C 3.875 -5.785156 3.8125 -5.519531 3.75 -5.25 C 3.6875 -4.988281 3.628906 -4.769531 3.578125 -4.59375 L 3.234375 -3.28125 Z M 4.9375 -3.28125 "/></g></g></g></svg>